<mxfile host="app.diagrams.net" modified="2024-01-19T16:41:41.943Z" agent="Mozilla/5.0 (Macintosh; Intel Mac OS X 10_15_7) AppleWebKit/537.36 (KHTML, like Gecko) Chrome/120.0.0.0 Safari/537.36" etag="b-25xkr8nb--Oh5wnBKr" version="22.1.18" type="device">
  <diagram name="Page-1" id="qIfWike2WkgLBzImMcAH">
    <mxGraphModel dx="933" dy="732" grid="1" gridSize="10" guides="1" tooltips="1" connect="1" arrows="1" fold="1" page="1" pageScale="1" pageWidth="1169" pageHeight="827" math="1" shadow="0">
      <root>
        <mxCell id="0" />
        <mxCell id="1" parent="0" />
        <mxCell id="jw7RVykZ0U9aPVhbDE09-8" style="rounded=0;orthogonalLoop=1;jettySize=auto;html=1;fillColor=#dae8fc;strokeColor=#6c8ebf;fontStyle=1;fontSize=13;fontColor=#000000;" edge="1" parent="1" source="jw7RVykZ0U9aPVhbDE09-1" target="jw7RVykZ0U9aPVhbDE09-4">
          <mxGeometry relative="1" as="geometry" />
        </mxCell>
        <mxCell id="jw7RVykZ0U9aPVhbDE09-19" style="edgeStyle=orthogonalEdgeStyle;rounded=0;orthogonalLoop=1;jettySize=auto;html=1;exitX=1;exitY=0;exitDx=0;exitDy=0;entryX=0;entryY=0.5;entryDx=0;entryDy=0;elbow=vertical;curved=1;fillColor=#dae8fc;strokeColor=#6c8ebf;fontStyle=1;fontSize=13;fontColor=#000000;" edge="1" parent="1" source="jw7RVykZ0U9aPVhbDE09-1" target="jw7RVykZ0U9aPVhbDE09-23">
          <mxGeometry relative="1" as="geometry">
            <Array as="points">
              <mxPoint x="182" y="210" />
              <mxPoint x="530" y="210" />
              <mxPoint x="530" y="280" />
            </Array>
          </mxGeometry>
        </mxCell>
        <mxCell id="jw7RVykZ0U9aPVhbDE09-30" style="edgeStyle=orthogonalEdgeStyle;rounded=0;orthogonalLoop=1;jettySize=auto;html=1;fillColor=#dae8fc;strokeColor=#6c8ebf;fontStyle=1;fontSize=13;fontColor=#000000;" edge="1" parent="1" source="jw7RVykZ0U9aPVhbDE09-1" target="jw7RVykZ0U9aPVhbDE09-20">
          <mxGeometry relative="1" as="geometry" />
        </mxCell>
        <mxCell id="jw7RVykZ0U9aPVhbDE09-1" value="Gender" style="ellipse;whiteSpace=wrap;html=1;fillColor=#dae8fc;strokeColor=#6c8ebf;fontStyle=1;fontSize=13;fontColor=#000000;" vertex="1" parent="1">
          <mxGeometry x="80" y="240" width="120" height="80" as="geometry" />
        </mxCell>
        <mxCell id="jw7RVykZ0U9aPVhbDE09-2" value="Job" style="ellipse;whiteSpace=wrap;html=1;fillColor=#dae8fc;strokeColor=#6c8ebf;fontStyle=1;fontSize=13;fontColor=#000000;" vertex="1" parent="1">
          <mxGeometry x="480" y="360" width="120" height="80" as="geometry" />
        </mxCell>
        <mxCell id="jw7RVykZ0U9aPVhbDE09-7" style="rounded=0;orthogonalLoop=1;jettySize=auto;html=1;entryX=0;entryY=0.5;entryDx=0;entryDy=0;fillColor=#dae8fc;strokeColor=#6c8ebf;fontStyle=1;fontSize=13;fontColor=#000000;" edge="1" parent="1" source="jw7RVykZ0U9aPVhbDE09-3" target="jw7RVykZ0U9aPVhbDE09-6">
          <mxGeometry relative="1" as="geometry" />
        </mxCell>
        <mxCell id="jw7RVykZ0U9aPVhbDE09-29" style="edgeStyle=orthogonalEdgeStyle;rounded=0;orthogonalLoop=1;jettySize=auto;html=1;fillColor=#dae8fc;strokeColor=#6c8ebf;fontStyle=1;fontSize=13;fontColor=#000000;" edge="1" parent="1" source="jw7RVykZ0U9aPVhbDE09-3" target="jw7RVykZ0U9aPVhbDE09-4">
          <mxGeometry relative="1" as="geometry" />
        </mxCell>
        <mxCell id="jw7RVykZ0U9aPVhbDE09-3" value="Age" style="ellipse;whiteSpace=wrap;html=1;fillColor=#dae8fc;strokeColor=#6c8ebf;fontStyle=1;fontSize=13;fontColor=#000000;" vertex="1" parent="1">
          <mxGeometry x="80" y="360" width="120" height="80" as="geometry" />
        </mxCell>
        <mxCell id="jw7RVykZ0U9aPVhbDE09-10" style="rounded=0;orthogonalLoop=1;jettySize=auto;html=1;exitX=1;exitY=0.5;exitDx=0;exitDy=0;fillColor=#dae8fc;strokeColor=#6c8ebf;fontStyle=1;fontSize=13;fontColor=#000000;" edge="1" parent="1" source="jw7RVykZ0U9aPVhbDE09-4" target="jw7RVykZ0U9aPVhbDE09-2">
          <mxGeometry relative="1" as="geometry" />
        </mxCell>
        <mxCell id="jw7RVykZ0U9aPVhbDE09-4" value="Work status" style="ellipse;whiteSpace=wrap;html=1;fillColor=#dae8fc;strokeColor=#6c8ebf;fontStyle=1;fontSize=13;fontColor=#000000;" vertex="1" parent="1">
          <mxGeometry x="280" y="360" width="120" height="80" as="geometry" />
        </mxCell>
        <mxCell id="jw7RVykZ0U9aPVhbDE09-6" value="Driving&lt;br style=&quot;font-size: 13px;&quot;&gt;license" style="ellipse;whiteSpace=wrap;html=1;fillColor=#f5f5f5;strokeColor=#666666;fontStyle=1;fontSize=13;fontColor=#333333;" vertex="1" parent="1">
          <mxGeometry x="280" y="480" width="120" height="80" as="geometry" />
        </mxCell>
        <mxCell id="jw7RVykZ0U9aPVhbDE09-22" style="rounded=0;orthogonalLoop=1;jettySize=auto;html=1;fillColor=#dae8fc;strokeColor=#6c8ebf;fontStyle=1;fontSize=13;fontColor=#000000;" edge="1" parent="1" source="jw7RVykZ0U9aPVhbDE09-20" target="jw7RVykZ0U9aPVhbDE09-2">
          <mxGeometry relative="1" as="geometry" />
        </mxCell>
        <mxCell id="jw7RVykZ0U9aPVhbDE09-24" style="rounded=0;orthogonalLoop=1;jettySize=auto;html=1;entryX=0;entryY=1;entryDx=0;entryDy=0;exitX=1;exitY=0;exitDx=0;exitDy=0;fillColor=#dae8fc;strokeColor=#6c8ebf;fontStyle=1;fontSize=13;fontColor=#000000;" edge="1" parent="1" source="jw7RVykZ0U9aPVhbDE09-2" target="jw7RVykZ0U9aPVhbDE09-23">
          <mxGeometry relative="1" as="geometry" />
        </mxCell>
        <mxCell id="jw7RVykZ0U9aPVhbDE09-20" value="Education level" style="ellipse;whiteSpace=wrap;html=1;fillColor=#dae8fc;strokeColor=#6c8ebf;fontStyle=1;fontSize=13;fontColor=#000000;" vertex="1" parent="1">
          <mxGeometry x="280" y="240" width="120" height="80" as="geometry" />
        </mxCell>
        <mxCell id="jw7RVykZ0U9aPVhbDE09-23" value="&lt;font&gt;Income&lt;/font&gt;" style="ellipse;whiteSpace=wrap;html=1;fillColor=#d5e8d4;strokeColor=#82b366;fontStyle=1;fontSize=13;" vertex="1" parent="1">
          <mxGeometry x="640" y="240" width="120" height="80" as="geometry" />
        </mxCell>
        <mxCell id="jw7RVykZ0U9aPVhbDE09-25" value="Handicap" style="ellipse;whiteSpace=wrap;html=1;fillColor=#fff2cc;strokeColor=#d6b656;fontStyle=1;fontSize=13;fontColor=#000000;" vertex="1" parent="1">
          <mxGeometry x="600" y="480" width="120" height="80" as="geometry" />
        </mxCell>
        <mxCell id="jw7RVykZ0U9aPVhbDE09-31" value="$$v_{t1}$$" style="text;html=1;align=center;verticalAlign=middle;resizable=0;points=[];autosize=1;strokeColor=none;fillColor=none;" vertex="1" parent="1">
          <mxGeometry x="100" y="290" width="80" height="30" as="geometry" />
        </mxCell>
        <mxCell id="jw7RVykZ0U9aPVhbDE09-32" value="$$v_{t2}$$" style="text;html=1;align=center;verticalAlign=middle;resizable=0;points=[];autosize=1;strokeColor=none;fillColor=none;" vertex="1" parent="1">
          <mxGeometry x="100" y="410" width="80" height="30" as="geometry" />
        </mxCell>
        <mxCell id="jw7RVykZ0U9aPVhbDE09-33" value="$$v_{t3}$$" style="text;html=1;align=center;verticalAlign=middle;resizable=0;points=[];autosize=1;strokeColor=none;fillColor=none;" vertex="1" parent="1">
          <mxGeometry x="300" y="290" width="80" height="30" as="geometry" />
        </mxCell>
        <mxCell id="jw7RVykZ0U9aPVhbDE09-34" value="$$v_{t4}$$" style="text;html=1;align=center;verticalAlign=middle;resizable=0;points=[];autosize=1;strokeColor=none;fillColor=none;" vertex="1" parent="1">
          <mxGeometry x="300" y="410" width="80" height="30" as="geometry" />
        </mxCell>
        <mxCell id="jw7RVykZ0U9aPVhbDE09-35" value="$$v_{t5}$$" style="text;html=1;align=center;verticalAlign=middle;resizable=0;points=[];autosize=1;strokeColor=none;fillColor=none;" vertex="1" parent="1">
          <mxGeometry x="500" y="410" width="80" height="30" as="geometry" />
        </mxCell>
        <mxCell id="jw7RVykZ0U9aPVhbDE09-39" value="$$v_{t6}$$" style="text;html=1;align=center;verticalAlign=middle;resizable=0;points=[];autosize=1;strokeColor=none;fillColor=none;" vertex="1" parent="1">
          <mxGeometry x="660" y="290" width="80" height="30" as="geometry" />
        </mxCell>
      </root>
    </mxGraphModel>
  </diagram>
</mxfile>
